<mxfile host="app.diagrams.net" modified="2023-09-08T08:10:47.733Z" agent="Mozilla/5.0 (Windows NT 10.0; Win64; x64) AppleWebKit/537.36 (KHTML, like Gecko) Chrome/116.0.0.0 Safari/537.36 Edg/116.0.1938.69" version="21.3.7" etag="r0RSaXqBsWhB2qcJ531_" type="github">
  <diagram name="第 1 页" id="dUVpfwyoC4gSbAyravGl">
    <mxGraphModel>
      <root>
        <mxCell id="0" />
        <mxCell id="1" parent="0" />
      </root>
    </mxGraphModel>
  </diagram>
</mxfile>
